<svg width="80" height="80" viewBox="0 0 80 80" fill="none" xmlns="http://www.w3.org/2000/svg">
<path d="M32.5 46.875H47.5L49.5 53.2084L50.5 56.375H52L55 63.875H25L28 56.375H29.5L30.5 53.2084L32.5 46.875Z" fill="black"/>
<path d="M37 23.375C33.5004 14.875 46.5004 14.875 42.9998 23.375C43.8438 23.9106 44.6878 24.5368 45.5 25.2427L37 36H40.5L47.5 27.228C51.7921 32.1048 54.0704 39.3819 48.0004 46.875H32.0004C24 37 30.5 27.5 37 23.375Z" fill="black"/>
<path d="M50.5 56.375C49 57.875 31.1 57.975 29.5 56.375M50.5 56.375L49.5 53.2084M50.5 56.375H52L55 63.875H25L28 56.375H29.5M29.5 56.375L30.5 53.2084M30.5 53.2084L32.5 46.875H47.5L49.5 53.2084M30.5 53.2084H49.5M37 23.375C33.5004 14.875 46.5004 14.875 42.9998 23.375C43.8438 23.9106 44.6878 24.5368 45.5 25.2427L37 36H40.5L47.5 27.228C51.7921 32.1048 54.0704 39.3819 48.0004 46.875H32.0004C24 37 30.5 27.5 37 23.375Z" stroke="white"/>
</svg>
