<svg width="80" height="80" viewBox="0 0 80 80" fill="none" xmlns="http://www.w3.org/2000/svg">
<path d="M41.9999 38L39.9999 45H50.5002C72.9225 35 51.0312 5.74049 41.9999 38Z" fill="white"/>
<path d="M41.9999 38L39.9999 45H50.5002C72.9225 35 51.0312 5.74049 41.9999 38Z" fill="white"/>
<path d="M39.9999 19C45 24 41.9999 38 41.9999 38L39.9999 45L38 38C38 38 35 24 39.9999 19Z" fill="white"/>
<path d="M39.9999 45H29.5C7 35 29 5.75 38 38L39.9999 45Z" fill="white"/>
<path d="M57 45V50H40H23V45H29.5H39.9999H50.5002H57Z" fill="white"/>
<path d="M57 50V55C40 55.5 40.2864 55.5 23 55V50H40H57Z" fill="white"/>
<path d="M57 55V60C40 60.5 40.2864 60.5 23 60V55C40.2864 55.5 40 55.5 57 55Z" fill="white"/>
<path d="M39.9999 45H50.5002M39.9999 45L41.9999 38M39.9999 45H29.5M39.9999 45L38 38M50.5002 45C72.9225 35 51.0312 5.74049 41.9999 38M50.5002 45H57V50M57 50V55M57 50H40H23M41.9999 38C41.9999 38 45 24 39.9999 19C35 24 38 38 38 38M57 55V60C40 60.5 40.2864 60.5 23 60V55M57 55C40 55.5 40.2864 55.5 23 55M38 38C29 5.75 7 35 29.5 45M29.5 45H23V50M23 50V55" stroke="black"/>
<path d="M40 19.5V12M38 15H42" stroke="black"/>
</svg>
