<svg width="80" height="80" viewBox="0 0 80 80" fill="none" xmlns="http://www.w3.org/2000/svg">
<path d="M29.0292 43.5C24.5292 48.5 20.5284 40 22.5292 38L31.0284 29C31.0284 29 33.0283 24.5 35.5283 24V19L38.7274 23.2546C39.4281 23.1078 40.0805 23 40.5283 23V18L46.0283 25.5C51.0283 31 62.0283 44 56.5283 61.5H30.0283V54.5C32.5283 50 41.1283 41.9 41.5283 41.5V36.119C41.0717 39.2437 33.726 41.1512 29.0292 43.5Z" fill="#6D6D6D"/>
<path d="M35.5283 24C33.0283 24.5 31.0284 29 31.0284 29L22.5292 38C20.5284 40 24.5292 48.5 29.0292 43.5C33.726 41.1512 41.0717 39.2437 41.5283 36.119M35.5283 24V19L38.7274 23.2546M35.5283 24C36.2369 23.8583 37.5503 23.5013 38.7274 23.2546M38.7274 23.2546C39.4281 23.1078 40.0805 23 40.5283 23V18L46.0283 25.5C51.0283 31 62.0283 44 56.5283 61.5H30.0283V54.5C32.5283 50 41.1283 41.9 41.5283 41.5V36.119M41.5283 36.119V35.5C41.5586 35.7117 41.5577 35.9178 41.5283 36.119Z" stroke="black"/>
<path d="M23.5 40.5H25.5" stroke="black"/>
<path d="M34.5 29.5H37.5L36.5 30H35H34.5H34V29.5V29" stroke="black"/>
</svg>
