<svg width="80" height="80" viewBox="0 0 80 80" fill="none" xmlns="http://www.w3.org/2000/svg">
<path fill-rule="evenodd" clip-rule="evenodd" d="M14.1667 26.6667C14.1667 17.4619 21.6286 10 30.8333 10H56.6667C65.8714 10 73.3333 17.4619 73.3333 26.6667V53.3333C73.3333 62.5381 65.8714 70 56.6667 70H10C8.77502 70 7.64873 69.3281 7.0668 68.2502C6.48488 67.1722 6.54108 65.862 7.21318 64.8378L12.5271 56.7403C13.5968 55.1104 14.1667 53.2033 14.1667 51.2538V26.6667ZM30.8333 16.6667C25.3105 16.6667 20.8333 21.1438 20.8333 26.6667V51.2538C20.8333 54.5031 19.8835 57.6815 18.1008 60.398L16.1745 63.3333H56.6667C62.1895 63.3333 66.6667 58.8562 66.6667 53.3333V26.6667C66.6667 21.1438 62.1895 16.6667 56.6667 16.6667H30.8333Z" fill="white"/>
</svg>
