<svg width="80" height="80" viewBox="0 0 80 80" fill="none" xmlns="http://www.w3.org/2000/svg">
<path d="M35.9998 28.9384C29 15.9384 51 15.4384 43.9999 28.9384C49.8286 28.9384 49.9953 34.1283 44.5 34.4252V36.9384L43.5 38.4384H43V42.4384C43 44.5488 43.4949 48.1438 45.0068 50.4384C45.6441 51.4057 46.4621 52.1419 47.5 52.4384V54.4384H50L53 57.4384V60.4384L27 60.4384V57.4384L30 54.4384H32.5V52.4384C33.5379 52.1419 34.3559 51.4057 34.9932 50.4384C36.5051 48.1438 37 44.5488 37 42.4384V38.4384H36.5L35.5 36.9384L35.5005 34.4252C30.0052 34.1283 30.1711 28.9384 35.9998 28.9384Z" fill="white"/>
<path d="M35.9998 28.9384C29 15.9384 51 15.4384 43.9999 28.9384M35.9998 28.9384L43.9999 28.9384M35.9998 28.9384C30.1711 28.9384 30.0052 34.1283 35.5005 34.4252M43.9999 28.9384C49.8286 28.9384 49.9953 34.1283 44.5 34.4252M36.0005 34.4384H43.9999C44.1715 34.4384 44.3382 34.4339 44.5 34.4252M36.0005 34.4384L44.5 34.4252M36.0005 34.4384C35.8289 34.4384 35.6622 34.4339 35.5005 34.4252M44.5 34.4252V36.9384L43.5 38.4384H43M35.5005 34.4252L35.5 36.9384L36.5 38.4384H37M37 38.4384V42.4384C37 44.5488 36.5051 48.1438 34.9932 50.4384M37 38.4384H43M43 38.4384V42.4384C43 44.5488 43.4949 48.1438 45.0068 50.4384M47.5 54.4384V52.4384C46.4621 52.1419 45.6441 51.4057 45.0068 50.4384M47.5 54.4384H32.5M47.5 54.4384H50L53 57.4384V60.4384L27 60.4384V57.4384L30 54.4384H32.5M32.5 54.4384V52.4384C33.5379 52.1419 34.3559 51.4057 34.9932 50.4384M34.9932 50.4384H45.0068" stroke="black"/>
</svg>
