<svg width="80" height="80" viewBox="0 0 80 80" fill="none" xmlns="http://www.w3.org/2000/svg">
<path d="M35 45L40 24L45 45L51 26V45L59 30L56 45V51V55.5V60C40 61.5 40 61.5 24 60V55.5V51V45L21 30L28.9783 44.9594L29 45V26L35 45Z" fill="#6D6D6D"/>
<path d="M40 24C36 24 36 18 40 18C43.9999 18 44.0002 24 40 24Z" fill="#6D6D6D"/>
<path d="M29 26C25 26 25 20 29 20C32.9999 20 33.0002 26 29 26Z" fill="#6D6D6D"/>
<path d="M51 26C47 26 47 20 51 20C54.9999 20 55.0001 26 51 26Z" fill="#6D6D6D"/>
<path d="M60 30C56 30 56 24 60 24C63.9999 24 64.0002 30 60 30Z" fill="#6D6D6D"/>
<path d="M20 30C16 30 16 24 20 24C23.9999 24 24.0002 30 20 30Z" fill="#6D6D6D"/>
<path d="M45 45L40 24M45 45L51 26M45 45H51M45 45H35M35 45L40 24M35 45H29M35 45L29 26M40 24C36 24 36 18 40 18C43.9999 18 44.0002 24 40 24ZM51 26V45M51 26C47 26 47 20 51 20C54.9999 20 55.0001 26 51 26ZM51 45H56M51 45L59 30L56 45M29 45V26M29 45L28.9783 44.9594M29 26C25 26 25 20 29 20C32.9999 20 33.0002 26 29 26ZM24 45L21 30L28.9783 44.9594M24 45L28.9783 44.9594M24 45V51M56 45V51M56 51H24M56 51V55.5M24 51V55.5M24 55.5V60C40 61.5 40 61.5 56 60V55.5M24 55.5C40 56.5 40 56.5 56 55.5M60 30C56 30 56 24 60 24C63.9999 24 64.0002 30 60 30ZM20 30C16 30 16 24 20 24C23.9999 24 24.0002 30 20 30Z" stroke="black"/>
</svg>
