<svg width="80" height="80" viewBox="0 0 80 80" fill="none" xmlns="http://www.w3.org/2000/svg">
<path d="M26 20H30.9999V23H36.9999V20H43V23H49V20H53.9999V23L52.9999 28.7071H52.4999L48.9999 33V47L51.4999 51H52.9999L53.9999 55.5H55.9999L57.9999 60.5H22L24 55.5H26L26.9999 51H28.5L30.9999 47V33L27.5 28.7071H26.9999L26 23V20Z" fill="#6D6D6D"/>
<path d="M27.5 28.7071H26.9999L26 23V20H30.9999V23H36.9999V20H43V23H49V20H53.9999V23L52.9999 28.7071H52.4999M27.5 28.7071L30.9999 33M27.5 28.7071H52.4999M30.9999 33H48.9999M30.9999 33V47M48.9999 33L52.4999 28.7071M48.9999 33V47M30.9999 47H48.9999M30.9999 47L28.5 51M48.9999 47L51.4999 51M51.4999 51H28.5M51.4999 51H52.9999L53.9999 55.5M28.5 51H26.9999L26 55.5M53.9999 55.5H26M53.9999 55.5H55.9999L57.9999 60.5H22L24 55.5H26" stroke="black"/>
</svg>
